<svg xmlns="http://www.w3.org/2000/svg" width="1024" height="1024" viewBox="0 0 1024 1024">
<g>
<path d="M 384.00 604.41 C379.49,608.86 373.55,608.63 369.53,603.86 C366.02,599.68 366.26,595.11 370.57,583.84 C372.72,578.21 374.50,571.32 375.06,566.50 C375.18,565.47 375.29,564.53 375.40,563.66 C376.04,558.38 376.32,555.99 375.27,554.88 C374.22,553.78 371.87,553.92 367.25,553.74 L 358.50 553.41 L 368.50 553.18 C375.16,553.02 377.97,552.63 376.93,552.02 C375.96,551.45 371.73,551.51 365.93,552.17 C355.40,553.38 340.15,553.66 337.64,552.69 C336.23,552.15 336.00,550.15 336.00,538.53 C336.00,529.78 335.63,525.00 334.95,525.00 C334.27,525.00 333.96,530.02 334.05,539.63 C334.18,552.54 333.98,554.51 332.35,556.44 C331.33,557.64 330.91,558.01 331.41,557.27 C331.99,556.40 331.85,555.49 331.01,554.71 C329.97,553.74 329.88,553.80 330.55,555.00 C331.25,556.26 331.13,556.29 329.80,555.21 C328.92,554.51 327.60,554.06 326.86,554.21 C325.78,554.44 325.37,551.10 324.88,537.86 C324.53,528.71 323.94,520.72 323.57,520.11 C323.19,519.50 323.47,518.96 324.19,518.90 C324.91,518.85 324.38,518.44 323.00,518.00 L 320.50 517.20 L 323.20 517.10 C326.86,516.96 330.65,518.82 332.51,521.65 C333.76,523.57 334.92,524.00 338.77,524.00 L 343.50 524.00 L 343.20 538.50 C343.00,547.90 343.26,553.00 343.92,553.00 C344.54,553.00 345.06,548.06 345.25,540.25 L 345.57 527.50 L 345.78 540.25 C345.94,549.67 346.33,553.00 347.25,553.00 C348.19,553.00 348.42,550.43 348.19,542.63 C348.02,536.92 348.31,530.74 348.85,528.88 C349.62,526.20 349.86,528.19 350.03,538.50 C350.14,545.65 350.18,551.84 350.12,552.25 C350.05,552.66 350.45,553.00 351.00,553.00 C351.61,553.00 352.00,548.19 352.00,540.58 C352.00,533.75 352.26,527.48 352.58,526.64 C353.04,525.46 352.21,525.03 348.83,524.71 C346.45,524.48 374.20,524.29 410.50,524.30 C446.80,524.30 476.95,524.18 477.50,524.03 C478.05,523.88 478.95,523.87 479.50,524.00 C480.05,524.12 519.65,524.19 567.50,524.14 C615.35,524.10 653.94,524.31 653.25,524.61 C651.86,525.23 651.75,533.16 652.96,544.00 C653.61,549.78 653.73,549.06 653.97,537.50 C654.11,530.35 654.16,524.10 654.07,523.61 C653.70,521.60 659.43,517.00 662.30,517.00 C665.06,517.00 665.19,517.18 664.60,520.25 C663.32,526.88 662.86,542.77 663.72,551.25 L 664.60 560.00 L 661.99 560.00 C660.40,560.00 658.26,558.84 656.55,557.05 C654.38,554.78 652.67,554.03 649.20,553.80 L 644.68 553.50 L 644.73 539.00 L 644.78 524.50 L 643.94 537.84 C643.47,545.18 642.58,551.80 641.95,552.56 C641.01,553.69 631.71,553.96 589.15,554.06 C560.74,554.13 537.05,554.15 536.50,554.11 C534.89,554.00 385.88,553.80 381.62,553.91 L 377.73 554.00 L 378.24 563.75 C378.68,572.08 379.30,574.81 382.51,582.50 C387.28,593.92 387.74,600.73 384.00,604.41 ZM 583.11 487.98 C576.31,489.27 574.75,489.21 568.02,487.40 C552.56,483.24 543.68,471.84 543.56,456.00 C543.51,449.66 543.96,447.57 546.44,442.50 C550.71,433.76 558.23,426.89 569.29,421.61 C580.83,416.11 585.52,415.00 597.19,415.01 C607.20,415.02 616.09,416.86 619.03,419.53 C621.68,421.92 622.56,432.38 621.01,442.82 C619.36,453.92 613.35,466.15 605.15,475.10 C598.56,482.28 591.53,486.40 583.11,487.98 ZM 575.76 480.44 C575.90,480.57 578.01,480.38 580.45,480.01 C588.83,478.74 595.05,472.59 596.47,464.17 C597.60,457.47 593.69,443.00 590.74,443.00 C590.28,443.00 588.91,441.93 587.70,440.62 C581.35,433.75 567.53,433.32 559.88,439.75 C554.44,444.33 550.62,455.18 552.84,459.76 C553.31,460.72 554.72,463.63 555.98,466.24 C557.27,468.92 560.27,472.60 562.88,474.70 C565.42,476.75 567.72,478.68 568.00,478.99 C568.28,479.29 570.08,479.69 572.00,479.87 C573.92,480.05 575.62,480.30 575.76,480.44 ZM 354.08 596.42 C350.50,600.23 345.03,600.01 341.59,595.92 C338.03,591.70 338.27,588.29 343.00,575.74 C345.20,569.91 347.00,564.20 347.00,563.06 C347.00,559.65 348.70,560.74 349.31,564.54 C349.63,566.49 351.31,571.78 353.05,576.29 C357.09,586.77 357.40,592.87 354.08,596.42 ZM 420.75 536.61 C423.53,538.72 433.33,538.37 436.14,536.06 L 438.50 534.12 L 436.22 531.81 C434.31,529.88 432.96,529.52 427.99,529.61 C419.85,529.76 416.28,533.22 420.75,536.61 ZM 604.86 536.06 C606.56,537.45 608.76,538.00 612.68,538.00 C619.01,538.00 622.00,536.72 622.00,534.00 C622.00,529.37 608.80,527.72 604.75,531.84 L 602.50 534.12 ZM 569.25 536.97 C572.36,538.22 580.73,538.22 583.07,536.96 C587.54,534.57 583.02,529.00 576.61,529.00 C569.16,529.00 563.81,534.78 569.25,536.97 ZM 373.50 536.00 C377.48,540.39 392.31,537.59 390.47,532.79 C388.88,528.64 376.99,528.14 373.43,532.07 C371.77,533.91 371.78,534.10 373.50,536.00 ZM 373.07 599.12 C373.85,600.60 374.96,601.04 377.30,600.81 C382.39,600.31 382.97,596.79 379.41,588.12 L 376.50 581.06 L 374.25 586.16 C371.80,591.71 371.40,596.02 373.07,599.12 ZM 458.05 536.24 C460.84,538.50 469.67,538.62 472.78,536.44 C474.00,535.59 474.99,534.57 474.98,534.19 C474.91,530.62 466.99,528.32 460.99,530.12 C456.21,531.55 455.10,533.86 458.05,536.24 ZM 531.75 536.61 C532.71,537.34 535.97,537.94 539.00,537.94 C547.94,537.94 551.31,533.28 544.45,530.41 C539.08,528.17 530.00,530.22 530.00,533.67 C530.00,534.56 530.79,535.88 531.75,536.61 ZM 494.87 536.10 C496.48,537.40 498.79,538.00 502.18,538.00 C507.93,538.00 511.00,536.66 511.00,534.16 C511.00,531.07 508.80,530.00 502.45,530.00 C497.49,530.00 495.95,530.40 494.41,532.10 C492.54,534.16 492.55,534.22 494.87,536.10 ZM 345.65 592.17 C349.03,595.90 353.57,592.87 352.43,587.67 C351.65,584.11 348.30,576.00 347.61,576.00 C346.97,576.00 344.00,586.37 344.00,588.58 C344.00,589.55 344.74,591.17 345.65,592.17 ZM 379.07 616.96 C378.00,617.53 376.68,618.00 376.14,618.00 C374.47,618.00 372.00,614.97 372.00,612.93 C372.00,611.31 372.72,611.00 376.50,611.00 C380.62,611.00 381.00,611.21 381.00,613.46 C381.00,614.88 380.17,616.37 379.07,616.96 ZM 639.76 547.75 C639.50,550.64 639.62,553.00 640.01,553.00 C641.03,553.00 642.02,544.81 641.88,537.61 L 641.76 531.50 L 640.99 537.00 C640.56,540.03 640.01,544.86 639.76,547.75 ZM 405.80 550.25 C405.37,552.50 405.64,553.00 407.26,553.00 C408.71,553.00 408.98,552.66 408.26,551.75 C407.71,551.06 407.06,549.83 406.80,549.00 C406.51,548.08 406.13,548.56 405.80,550.25 ZM 640.70 527.61 C641.41,529.41 641.46,529.41 641.81,527.67 C642.19,525.77 641.39,524.28 640.48,525.19 C640.19,525.48 640.29,526.57 640.70,527.61 Z" fill="rgb(206,158,89)"/>
<path d="M 550.79 524.15 C510.76,524.17 479.98,524.11 479.50,524.00 C478.95,523.87 478.05,523.88 477.50,524.03 C476.95,524.18 446.80,524.30 410.50,524.30 C374.20,524.29 346.45,524.48 348.83,524.71 C350.98,524.91 352.10,525.16 352.51,525.62 C352.10,525.17 350.98,524.93 348.83,524.74 C346.45,524.52 362.61,524.27 384.75,524.17 L 425.00 524.00 L 425.00 488.59 C425.00,448.19 424.32,442.21 418.48,431.10 C412.85,420.39 402.99,413.97 392.24,414.02 C383.44,414.06 374.11,420.67 372.50,428.00 C371.57,432.21 372.50,432.86 374.35,429.29 C377.13,423.92 385.51,422.25 390.39,426.09 C401.06,434.48 395.42,449.99 381.70,450.00 C375.93,450.00 372.34,448.29 368.20,443.57 C364.57,439.44 363.54,435.05 364.28,426.90 C364.93,419.71 367.98,414.16 374.79,407.79 C386.76,396.60 406.78,391.46 424.20,395.11 C438.16,398.03 452.31,409.56 459.05,423.50 C466.72,439.37 467.31,443.59 467.74,486.25 L 468.13 524.00 L 472.81 524.00 C484.00,524.00 498.17,513.18 504.52,499.78 C509.26,489.80 510.34,483.05 509.70,467.31 C508.84,445.97 511.23,434.12 518.52,423.53 C523.01,417.01 524.08,416.82 520.52,423.18 C519.14,425.65 517.06,431.46 515.90,436.08 C513.98,443.70 513.85,446.17 514.44,462.00 C515.41,487.68 512.85,498.53 503.03,510.36 C500.82,513.03 499.00,515.41 499.00,515.63 C499.00,516.80 504.95,512.69 508.12,509.33 C517.80,499.09 519.99,491.04 520.03,465.54 C520.06,454.12 520.61,443.47 521.42,438.93 C522.98,430.18 528.52,417.59 532.36,414.08 C535.85,410.87 535.69,411.77 531.70,417.71 C524.81,427.94 523.86,435.51 525.00,471.00 C525.42,484.26 524.27,490.58 519.79,499.47 L 517.75 503.50 L 520.47 501.00 C521.96,499.62 523.62,497.70 524.14,496.72 C526.47,492.41 528.00,477.81 528.00,459.91 C528.00,442.34 528.16,440.81 530.85,431.91 C532.42,426.74 534.42,420.82 535.29,418.77 C537.19,414.31 544.88,405.87 550.68,401.88 C556.50,397.87 558.25,398.26 552.89,402.37 C547.64,406.40 543.39,411.57 539.15,419.09 C533.19,429.64 532.77,432.19 532.51,459.00 C532.34,477.15 531.89,484.86 530.79,488.75 C529.97,491.64 529.44,494.00 529.62,494.00 C530.33,494.00 533.26,487.48 534.74,482.62 C535.92,478.74 536.26,473.50 536.12,460.96 C535.91,441.59 537.29,433.22 542.52,422.15 C546.49,413.75 556.37,403.12 564.24,398.77 C570.61,395.25 583.58,390.32 588.50,389.55 C591.62,389.06 590.70,389.66 584.30,392.31 C572.86,397.04 566.04,401.40 559.07,408.44 C552.82,414.76 543.95,428.98 544.07,432.48 C544.12,433.81 544.79,433.05 546.02,430.26 C551.55,417.82 563.97,404.78 576.02,398.77 C580.35,396.60 589.39,393.52 597.50,391.45 C605.20,389.48 612.99,386.99 614.81,385.93 C618.76,383.63 620.30,383.44 617.50,385.61 C613.69,388.56 604.47,392.78 597.00,394.99 C581.00,399.71 569.01,406.92 560.45,416.95 C558.00,419.82 556.00,422.40 556.00,422.68 C556.00,422.96 559.30,420.11 563.34,416.34 C573.18,407.15 583.41,402.14 601.55,397.62 C617.11,393.75 621.88,391.99 627.00,388.24 L 630.50 385.67 L 627.64 388.75 C623.47,393.25 615.38,397.13 599.00,402.48 C585.27,406.96 575.97,410.86 578.78,410.96 C579.49,410.98 581.68,410.32 583.66,409.50 C585.63,408.67 593.25,406.41 600.58,404.46 C624.42,398.14 629.82,395.72 638.25,387.61 C643.64,382.42 644.35,382.83 640.12,388.68 C635.41,395.18 625.02,401.97 613.51,406.07 C607.22,408.31 610.20,408.52 618.36,406.41 C626.70,404.26 634.82,399.12 641.44,391.80 C647.32,385.31 650.43,379.79 652.53,372.19 L 653.82 367.50 L 653.91 372.62 C653.96,375.44 653.33,379.65 652.51,381.98 C650.12,388.75 642.45,399.42 635.20,406.03 C631.52,409.40 629.44,411.69 630.58,411.13 C634.95,408.99 642.90,400.78 647.60,393.55 C650.30,389.41 652.82,386.02 653.21,386.01 C654.44,385.99 650.24,394.75 646.15,400.76 C643.99,403.92 639.76,409.59 636.74,413.36 C632.39,418.80 631.14,421.18 630.70,424.86 C630.39,427.41 629.84,430.40 629.47,431.50 C629.10,432.60 631.83,427.99 635.53,421.25 C642.26,409.01 652.80,396.00 655.98,396.00 C656.97,396.00 656.75,396.49 655.31,397.49 C651.21,400.37 645.70,409.22 640.79,420.81 C638.07,427.24 633.21,437.79 629.99,444.25 C626.78,450.71 624.46,456.00 624.84,456.00 C626.09,456.00 631.59,446.68 636.78,435.74 C642.25,424.21 649.17,413.53 651.82,412.51 C653.03,412.05 652.91,412.48 651.34,414.19 C648.58,417.20 646.14,422.17 641.14,435.00 C635.97,448.23 631.08,456.52 623.66,464.62 C616.04,472.95 618.41,472.91 626.46,464.58 C632.79,458.03 637.87,450.72 644.39,438.79 C646.40,435.11 648.46,431.83 648.97,431.52 C650.23,430.74 642.61,449.29 639.46,454.65 C633.16,465.40 623.88,474.28 611.74,481.15 C608.86,482.79 607.62,483.81 609.00,483.44 C622.20,479.85 635.18,468.37 645.44,451.19 C647.52,447.72 649.42,445.09 649.67,445.34 C649.92,445.59 648.25,449.58 645.97,454.21 C640.95,464.39 632.82,474.23 623.87,480.95 C615.95,486.90 609.66,489.53 598.88,491.40 C589.68,493.00 587.78,494.00 593.94,494.00 C606.26,494.00 623.19,486.38 634.75,475.63 C636.54,473.97 638.00,472.96 638.00,473.38 C638.00,475.11 627.44,486.14 622.58,489.49 C609.20,498.70 591.11,500.93 571.50,495.78 C552.58,490.81 540.70,490.10 534.00,493.54 C531.82,494.66 532.83,494.82 542.00,494.81 C550.14,494.81 555.42,495.48 565.50,497.81 C592.54,504.07 599.15,504.14 613.17,498.35 C617.75,496.46 622.17,494.63 623.00,494.30 C626.25,492.97 619.19,497.89 614.26,500.38 C602.20,506.47 587.24,507.39 571.00,503.04 C553.64,498.40 536.26,497.23 527.25,500.12 C522.55,501.62 523.25,502.88 528.25,501.91 C537.74,500.07 547.66,500.87 562.34,504.64 C572.27,507.20 579.79,508.48 587.50,508.92 L 598.50 509.56 L 592.75 510.94 C585.93,512.57 573.56,511.41 560.50,507.90 C554.21,506.20 549.41,505.72 538.00,505.62 C525.11,505.51 523.00,505.74 519.00,507.64 C516.53,508.81 513.60,510.47 512.50,511.31 C510.70,512.70 511.19,512.70 517.50,511.34 C526.94,509.31 546.34,510.10 558.50,513.01 C569.38,515.62 587.71,516.66 595.04,515.08 C601.51,513.70 602.62,514.42 597.40,516.62 C590.64,519.47 573.63,519.62 559.00,516.95 C534.31,512.46 517.44,513.30 503.74,519.70 C499.48,521.69 496.19,523.52 496.43,523.77 C496.63,523.96 519.48,524.12 550.79,524.15 ZM 634.16 677.55 C621.81,680.17 608.66,679.01 594.56,674.06 C585.98,671.05 578.54,666.61 570.00,659.40 C556.54,648.03 549.34,638.36 532.45,609.00 C519.99,587.34 508.78,575.18 494.67,568.03 C486.91,564.09 485.81,563.81 477.44,563.66 L 468.50 563.50 L 467.91 591.00 C467.39,615.30 467.07,619.35 465.14,625.82 C458.61,647.72 445.29,663.15 427.31,669.68 C421.00,671.97 408.00,673.89 408.00,672.54 C408.00,672.13 409.97,669.60 412.38,666.93 C417.47,661.26 422.44,649.72 423.96,640.00 C424.53,636.39 424.99,615.81 424.99,593.75 L 425.00 554.00 L 420.75 553.91 L 419.84 553.88 C465.38,553.92 535.40,554.04 536.50,554.11 C536.53,554.11 536.62,554.12 536.76,554.12 L 542.55 558.34 C554.50,567.07 564.35,579.33 580.02,605.00 C598.66,635.52 611.93,649.37 631.43,658.63 C638.48,661.98 640.21,662.37 650.31,662.91 L 661.43 663.50 L 657.33 666.75 C651.34,671.48 641.78,675.94 634.16,677.55 ZM 353.63 698.79 C353.22,699.46 352.39,700.00 351.80,700.00 C350.13,700.00 323.08,672.46 316.27,663.81 C299.97,643.15 284.32,613.72 277.08,590.12 C258.55,529.79 263.44,467.82 291.04,412.91 C309.82,375.57 337.97,343.65 373.51,319.41 C413.52,292.11 461.72,277.97 514.50,278.02 C547.49,278.05 575.81,283.38 606.07,295.25 C664.09,318.02 710.43,360.91 737.14,416.58 C764.27,473.13 768.07,533.60 748.25,593.50 C743.28,608.54 729.77,636.84 723.31,645.76 C721.21,648.66 717.70,653.57 715.50,656.69 C706.23,669.79 694.64,682.67 681.69,694.23 C675.50,699.76 674.74,700.17 673.31,698.74 C671.88,697.31 672.09,696.86 675.62,693.83 C707.33,666.58 731.97,629.55 744.83,589.85 C753.13,564.22 756.00,545.67 756.00,517.76 C756.00,488.66 753.17,471.51 743.82,444.00 C730.84,405.80 706.93,369.97 676.75,343.49 C643.03,313.91 603.55,294.66 559.00,286.09 C506.48,275.98 445.57,284.76 399.27,309.10 C377.15,320.74 352.00,339.68 335.50,357.12 C297.88,396.91 275.23,447.54 270.92,501.50 C268.31,534.21 274.00,572.88 285.71,602.00 C299.12,635.36 317.14,661.93 343.36,687.04 C350.39,693.78 354.10,698.02 353.63,698.79 ZM 583.11 487.98 C591.53,486.40 598.56,482.28 605.15,475.10 C613.35,466.15 619.36,453.92 621.01,442.82 C622.56,432.38 621.68,421.92 619.03,419.53 C616.09,416.86 607.20,415.02 597.19,415.01 C585.52,415.00 580.83,416.11 569.29,421.61 C558.23,426.89 550.71,433.76 546.44,442.50 C543.96,447.57 543.51,449.66 543.56,456.00 C543.68,471.84 552.56,483.24 568.02,487.40 C574.75,489.21 576.31,489.27 583.11,487.98 ZM 659.32 292.66 C655.88,294.68 653.07,295.41 647.64,295.72 C641.30,296.08 639.82,295.79 634.50,293.18 C623.48,287.78 618.04,279.47 618.04,268.00 C618.04,247.31 638.94,234.64 657.65,243.98 C664.58,247.44 666.85,249.66 670.41,256.40 C672.39,260.14 673.00,262.76 673.00,267.47 C673.00,278.78 668.33,287.38 659.32,292.66 ZM 444.57 784.11 C441.91,785.31 438.24,785.95 434.00,785.93 C418.08,785.85 406.40,775.84 405.19,761.24 C404.38,751.48 410.29,740.98 419.24,736.28 C423.85,733.86 425.61,733.52 433.50,733.52 C440.81,733.51 443.25,733.92 446.50,735.67 C466.71,746.56 465.59,774.56 444.57,784.11 ZM 359.77 684.78 C363.54,690.52 359.09,687.17 347.25,675.35 C324.99,653.13 309.76,630.25 297.62,600.82 C291.50,585.99 288.99,577.21 284.95,556.50 C278.62,524.07 280.64,486.23 290.43,453.92 C306.35,401.41 338.78,358.41 385.50,327.87 C395.53,321.31 415.56,311.23 416.57,312.24 C416.74,312.41 413.20,314.52 408.69,316.93 C381.59,331.40 351.11,357.78 332.91,382.49 C320.29,399.63 306.48,425.11 300.66,442.00 C297.38,451.51 292.64,469.93 290.34,482.09 C288.11,493.87 287.79,533.55 289.81,547.50 C296.78,595.67 316.61,636.83 350.98,674.50 C354.99,678.90 358.95,683.53 359.77,684.78 ZM 802.39 451.26 C791.99,454.99 780.98,452.29 773.96,444.31 C770.91,440.83 759.42,418.25 760.27,417.40 C761.06,416.61 806.18,395.00 807.04,395.00 C808.18,395.00 811.74,401.94 816.45,413.31 C822.40,427.70 820.93,437.49 811.56,445.74 C809.21,447.81 805.08,450.29 802.39,451.26 ZM 510.06 264.48 C507.69,265.32 503.44,265.96 500.62,265.91 C482.19,265.60 469.84,250.36 473.99,233.04 C476.87,221.02 487.47,213.02 500.50,213.02 C513.25,213.02 523.24,220.13 526.56,231.57 C530.56,245.33 523.30,259.81 510.06,264.48 ZM 694.04 659.30 C685.88,669.29 666.38,688.43 665.63,687.21 C665.29,686.65 668.20,682.68 672.11,678.38 C709.40,637.32 729.06,597.91 736.60,549.10 C738.83,534.66 738.80,499.53 736.55,485.00 C725.46,413.44 682.18,352.54 617.00,316.77 C601.64,308.34 606.83,309.73 624.01,318.64 C649.42,331.82 669.91,347.94 689.28,370.00 C701.06,383.40 706.78,391.35 715.32,406.15 C723.40,420.15 725.25,424.12 731.34,440.50 C737.91,458.19 739.26,463.27 742.54,482.61 C745.31,498.96 745.91,524.83 743.93,542.79 C741.09,568.65 731.08,600.60 718.89,622.66 C713.96,631.59 700.62,651.26 694.04,659.30 ZM 298.50 754.50 L 297.95 786.00 L 287.29 786.00 L 286.65 778.35 C286.29,774.14 286.00,762.44 286.00,752.35 L 286.00 734.00 L 299.52 734.00 L 306.99 748.54 C313.70,761.62 314.60,762.91 315.82,761.29 C316.56,760.31 320.06,753.76 323.59,746.75 L 330.01 734.00 L 343.00 734.00 L 343.00 759.00 C343.00,772.75 343.01,784.34 343.01,784.75 C343.02,785.16 340.55,785.63 337.54,785.80 L 332.05 786.10 L 331.77 769.80 L 331.50 753.50 L 325.20 766.20 C316.03,784.68 313.94,784.73 304.72,766.67 ZM 242.76 462.23 C241.69,465.40 240.52,467.95 240.16,467.90 C239.80,467.84 234.10,465.59 227.50,462.90 C220.90,460.20 210.77,456.13 205.00,453.84 C199.23,451.55 194.20,449.41 193.83,449.09 C192.92,448.29 202.29,423.44 204.74,420.13 C205.81,418.68 208.22,416.44 210.09,415.15 C216.83,410.52 230.19,414.34 235.03,422.29 C236.11,424.05 236.99,426.26 237.00,427.19 C237.00,428.12 237.35,429.10 237.77,429.36 C238.19,429.62 242.58,429.01 247.52,428.00 C252.45,426.99 256.60,426.27 256.73,426.40 C256.86,426.53 255.79,429.59 254.36,433.20 L 251.76 439.77 L 245.63 440.46 C234.95,441.67 234.45,441.88 232.92,445.84 C232.15,447.85 231.37,449.79 231.20,450.15 C231.04,450.51 234.01,452.08 237.81,453.63 L 244.71 456.46 ZM 608.00 770.00 L 608.00 786.00 L 596.00 786.00 L 596.00 734.00 L 611.25 734.02 C625.20,734.03 626.84,734.22 630.47,736.28 C636.49,739.69 639.00,744.10 639.00,751.25 C639.00,757.88 637.01,763.06 633.37,765.92 C632.07,766.95 631.00,768.20 631.00,768.70 C631.00,769.57 635.46,777.28 639.41,783.25 L 641.23 786.00 L 627.27 786.00 L 617.97 770.00 ZM 778.50 387.68 C768.60,393.66 758.39,399.78 755.80,401.29 L 751.11 404.02 L 747.96 399.44 L 744.80 394.85 L 752.48 376.84 C756.71,366.94 760.02,358.68 759.83,358.50 C759.65,358.32 753.90,361.96 747.05,366.58 C740.20,371.21 734.13,374.99 733.55,374.98 C732.43,374.96 726.99,367.76 727.02,366.34 C727.04,365.42 729.72,363.56 753.97,347.75 C763.03,341.84 770.72,337.00 771.06,337.00 C771.39,337.00 773.13,338.82 774.92,341.05 L 778.17 345.09 L 770.60 363.73 C766.44,373.98 763.16,382.50 763.32,382.65 C763.47,382.81 769.40,379.35 776.49,374.97 C783.58,370.59 789.93,367.00 790.60,367.00 C792.23,367.00 798.21,375.20 797.25,376.10 C796.84,376.49 788.40,381.70 778.50,387.68 ZM 361.00 307.30 C361.00,307.67 358.79,309.08 356.10,310.45 C355.85,310.57 355.62,310.69 355.40,310.81 C353.49,311.78 352.37,312.36 351.40,312.15 C349.90,311.83 348.80,309.60 345.76,304.00 C343.83,300.42 338.59,290.90 334.12,282.84 C329.65,274.77 326.00,267.92 326.00,267.60 C326.00,267.29 328.15,265.95 330.77,264.62 L 335.55 262.20 L 353.35 270.10 C363.14,274.44 371.31,278.00 371.51,278.00 C371.71,278.00 368.52,272.19 364.44,265.08 C360.35,257.98 357.00,251.72 357.00,251.18 C357.00,249.68 366.08,244.68 367.03,245.65 C367.49,246.12 372.21,254.38 377.54,264.00 C382.86,273.62 388.32,283.38 389.66,285.68 L 392.10 289.85 L 387.71 292.43 C385.30,293.84 382.78,295.00 382.12,295.00 C381.46,295.00 373.42,291.64 364.27,287.53 C355.11,283.42 347.43,280.24 347.21,280.46 C346.98,280.68 350.00,286.66 353.90,293.75 C357.81,300.84 361.00,306.93 361.00,307.30 ZM 369.00 772.17 L 369.00 786.00 L 363.67 786.00 C360.73,786.00 358.03,785.70 357.67,785.33 C357.30,784.97 357.00,773.27 357.00,759.33 L 357.00 734.00 L 371.03 734.00 C386.43,734.00 389.66,734.79 394.19,739.63 C399.34,745.14 400.56,754.02 397.11,760.79 C393.49,767.88 388.72,770.38 376.75,771.47 ZM 575.76 480.44 C575.62,480.30 573.92,480.05 572.00,479.87 C570.08,479.69 568.28,479.29 568.00,478.99 C567.72,478.68 565.42,476.75 562.88,474.70 C560.27,472.60 557.27,468.92 555.98,466.24 C554.72,463.63 553.31,460.72 552.84,459.76 C550.62,455.18 554.44,444.33 559.88,439.75 C567.53,433.32 581.35,433.75 587.70,440.62 C588.91,441.93 590.28,443.00 590.74,443.00 C593.04,443.00 595.93,451.82 596.55,458.88 C596.25,458.49 595.78,458.51 595.11,458.92 C593.93,459.66 593.93,460.01 595.11,461.30 C595.80,462.04 596.34,462.25 596.66,462.01 C596.64,462.79 596.58,463.52 596.47,464.17 C595.05,472.59 588.83,478.74 580.45,480.01 C578.01,480.38 575.90,480.57 575.76,480.44 ZM 313.80 344.90 C313.64,345.30 311.63,347.30 309.34,349.35 L 305.18 353.07 L 300.34 347.40 C297.68,344.28 290.55,336.03 284.50,329.06 C278.45,322.10 272.93,315.69 272.24,314.83 C271.16,313.50 271.67,312.69 275.66,309.42 L 280.35 305.58 L 287.00 312.85 L 293.65 320.12 L 301.82 313.52 C306.32,309.89 310.00,306.67 310.00,306.36 C310.00,306.05 307.91,303.48 305.37,300.65 L 305.30 300.58 C300.30,295.02 298.36,292.86 298.60,290.99 C298.76,289.80 299.82,288.72 301.55,286.95 C303.67,284.78 305.75,283.00 306.17,283.00 C306.59,283.00 310.43,287.12 314.71,292.16 C319.00,297.20 326.43,305.85 331.24,311.39 L 339.97 321.45 L 335.74 325.81 L 331.50 330.16 L 324.34 322.39 L 317.19 314.62 L 313.84 317.17 C312.00,318.57 308.27,321.74 305.55,324.21 L 300.59 328.69 L 307.35 336.44 C311.06,340.70 313.97,344.51 313.80,344.90 ZM 805.65 511.93 C801.33,514.99 796.97,518.10 795.96,518.83 C794.28,520.05 793.99,519.72 792.56,514.90 C791.70,512.00 791.00,509.16 791.00,508.57 C791.00,507.98 793.03,506.22 795.50,504.66 C800.71,501.37 800.79,500.90 797.88,490.26 C794.94,479.46 794.62,479.00 790.04,479.00 C787.89,479.00 785.46,478.32 784.63,477.49 C783.25,476.11 781.26,467.38 782.13,466.56 C782.53,466.18 834.46,474.58 836.44,475.34 C837.95,475.92 840.48,486.94 839.35,487.99 C838.88,488.42 832.88,492.72 826.00,497.56 C819.12,502.40 809.97,508.86 805.65,511.93 ZM 408.00 283.51 C401.19,285.85 400.16,286.07 399.74,285.29 C399.21,284.32 405.58,231.48 406.39,230.18 C406.97,229.24 414.66,227.00 417.30,227.00 C418.08,227.00 421.41,230.26 424.71,234.25 C428.01,238.24 435.75,247.51 441.91,254.86 C448.07,262.21 452.85,268.49 452.52,268.81 C452.20,269.14 449.47,270.16 446.46,271.09 L 441.00 272.78 L 437.91 268.89 C436.22,266.75 434.15,265.00 433.31,265.00 C431.16,265.00 414.75,270.11 413.30,271.23 C412.64,271.74 411.96,274.45 411.80,277.24 C411.52,282.04 411.32,282.37 408.00,283.51 ZM 275.00 776.00 L 275.00 786.00 L 235.00 786.00 L 235.00 734.00 L 275.00 734.00 L 275.00 744.00 L 248.00 744.00 L 248.00 755.00 L 271.00 755.00 L 271.00 765.00 L 248.26 765.00 L 247.72 769.75 C247.43,772.36 247.40,774.84 247.65,775.25 C247.91,775.66 254.17,776.00 261.56,776.00 ZM 231.50 521.75 C231.21,522.99 230.63,523.95 230.23,523.89 C229.83,523.83 226.57,523.21 223.00,522.52 C210.68,520.15 187.49,515.74 184.00,515.10 C182.07,514.75 180.52,514.02 180.54,513.48 C180.62,511.21 182.22,502.00 182.53,502.00 C182.72,502.00 185.94,502.62 189.68,503.39 C193.43,504.15 198.22,505.08 200.33,505.45 L 204.15 506.12 L 200.83 501.54 C199.00,499.01 194.85,493.56 191.62,489.42 L 185.74 481.90 L 186.39 476.32 C187.50,466.87 187.87,466.96 196.55,478.92 C200.92,484.95 205.02,489.91 205.66,489.94 C206.30,489.97 212.92,487.11 220.36,483.58 C221.55,483.02 222.66,482.49 223.69,482.00 C233.17,477.49 236.40,475.96 237.33,476.84 C237.80,477.29 237.66,478.39 237.45,480.06 C237.41,480.41 237.36,480.79 237.31,481.20 C236.24,490.60 236.33,490.53 216.68,498.42 L 212.86 499.96 L 214.50 502.73 C218.08,508.76 218.80,509.25 225.71,510.39 L 232.50 511.50 L 232.27 515.50 C232.15,517.70 231.80,520.51 231.50,521.75 ZM 826.00 775.24 L 826.00 786.00 L 786.00 786.00 L 786.00 734.00 L 802.00 733.80 C810.80,733.69 819.69,733.58 821.75,733.55 L 825.50 733.50 L 826.10 744.00 L 798.00 744.00 L 798.00 748.89 C798.00,752.43 798.44,753.95 799.58,754.39 C800.45,754.73 805.85,755.00 811.58,755.00 L 822.00 755.00 L 822.00 763.94 L 798.50 764.50 L 798.50 775.50 ZM 585.00 776.06 L 585.00 786.00 L 545.00 786.00 L 545.00 734.00 L 585.00 734.00 L 585.00 744.00 L 556.90 744.00 L 557.50 754.50 L 581.00 755.06 L 581.00 759.42 C581.00,764.72 580.31,764.95 566.45,764.22 L 556.89 763.72 L 557.20 769.61 L 557.50 775.50 L 571.25 775.78 ZM 598.80 271.92 C593.83,273.65 582.14,273.16 576.57,270.98 C570.86,268.75 564.76,263.22 561.68,257.50 C558.70,251.94 558.72,240.21 561.72,234.50 C568.34,221.91 583.18,216.73 597.39,222.04 C602.42,223.92 611.00,230.77 611.00,232.90 C611.00,233.64 605.70,237.44 602.75,238.82 C602.34,239.01 600.87,237.81 599.47,236.15 C598.08,234.49 595.32,232.60 593.35,231.95 C588.71,230.42 581.49,231.26 578.14,233.71 C571.97,238.23 570.05,248.78 574.26,255.10 C577.12,259.41 584.32,263.16 589.00,262.78 C592.43,262.51 592.54,262.35 594.45,255.50 C595.52,251.65 596.47,248.37 596.57,248.20 C596.94,247.62 606.05,250.27 606.57,251.11 C607.05,251.89 605.51,258.75 602.84,267.67 C602.18,269.90 600.98,271.16 598.80,271.92 ZM 525.72 783.96 C519.67,786.57 513.36,787.06 506.76,785.45 C500.72,783.98 493.58,780.74 492.49,778.99 C491.97,778.15 494.72,769.00 495.49,769.00 C495.62,769.00 498.74,770.58 502.43,772.50 C512.31,777.65 522.00,777.17 522.00,771.54 C522.00,768.30 519.74,766.27 514.71,764.97 C500.63,761.35 496.67,758.96 494.89,753.04 C492.51,745.07 496.39,737.54 504.50,734.45 C510.51,732.15 523.63,732.81 530.19,735.74 L 534.87 737.83 L 533.01 742.67 C530.97,747.99 530.95,747.99 523.00,745.08 C515.82,742.45 511.55,742.45 508.93,745.07 C505.50,748.50 508.12,750.96 519.06,754.63 C531.79,758.90 536.19,763.89 534.61,772.26 C533.59,777.64 530.29,781.99 525.72,783.96 ZM 866.60 784.09 C861.14,786.57 850.25,786.56 843.32,784.06 C838.00,782.15 833.09,779.11 833.03,777.71 C832.99,776.70 836.90,769.00 837.45,769.00 C837.68,769.00 840.06,770.36 842.73,772.02 C848.91,775.86 856.80,777.01 860.47,774.61 C865.82,771.11 862.79,766.94 852.83,764.09 C839.65,760.33 836.00,756.89 836.00,748.25 C836.00,743.24 836.33,742.44 839.77,738.99 C844.05,734.71 848.96,733.01 857.07,733.01 C862.94,733.00 871.38,735.07 874.24,737.22 C875.84,738.42 875.82,738.78 873.92,742.96 C872.81,745.42 871.77,747.56 871.60,747.73 C871.43,747.90 869.32,747.14 866.90,746.04 C862.62,744.10 853.90,743.33 850.58,744.61 C849.71,744.94 849.00,746.28 849.00,747.59 C849.00,750.33 853.12,752.77 862.09,755.36 C865.17,756.24 868.89,757.91 870.36,759.07 C879.07,765.92 877.06,779.35 866.60,784.09 ZM 275.49 387.99 C267.90,392.72 266.81,392.56 263.62,386.30 C261.55,382.21 261.58,381.00 263.75,380.99 C264.71,380.99 267.81,379.65 270.64,378.03 C278.04,373.79 282.07,366.47 278.80,363.20 C276.54,360.94 273.34,362.00 266.26,367.37 C255.61,375.44 248.50,375.74 242.05,368.40 C239.48,365.48 239.00,364.11 239.01,359.72 C239.02,353.42 242.72,346.29 248.86,340.75 C252.60,337.37 260.82,332.44 261.47,333.18 C262.29,334.11 266.09,342.24 265.82,342.47 C265.64,342.62 264.04,343.49 262.26,344.39 C254.27,348.46 248.39,356.35 251.00,359.50 C253.07,361.99 256.55,361.21 261.75,357.10 C273.60,347.74 281.50,346.61 287.72,353.39 C290.67,356.61 291.00,357.58 291.00,363.02 C291.00,366.34 290.30,370.74 289.45,372.78 C287.76,376.85 280.26,385.02 275.49,387.99 ZM 701.66 319.13 C694.60,323.46 688.69,327.00 688.54,327.00 C688.38,327.00 686.01,325.34 683.26,323.30 L 678.26 319.61 L 680.23 312.55 C683.32,301.45 693.90,266.97 694.53,265.96 C695.14,264.96 704.95,270.97 704.98,272.36 C704.99,272.83 702.30,281.57 698.99,291.77 C695.69,301.97 693.16,310.50 693.38,310.72 C693.60,310.93 699.34,307.57 706.14,303.24 C712.94,298.91 720.61,294.13 723.19,292.62 L 727.89 289.88 L 733.00 293.69 C736.65,296.40 737.75,297.73 736.81,298.29 C736.09,298.72 730.78,301.82 725.00,305.17 C719.22,308.52 708.72,314.81 701.66,319.13 ZM 767.55 783.48 C760.32,787.16 750.38,786.87 742.49,782.73 C738.63,780.71 732.70,774.45 730.49,770.07 C728.37,765.86 728.08,755.97 729.92,750.58 C731.61,745.66 738.17,738.47 743.46,735.75 C749.72,732.53 761.17,732.16 767.70,734.96 C770.50,736.17 773.80,738.22 775.01,739.51 L 777.21 741.85 L 774.01 745.84 L 770.80 749.83 L 766.21 746.92 C757.52,741.41 747.29,743.63 742.85,751.98 C738.95,759.33 741.63,768.74 748.78,772.76 C755.09,776.30 762.42,775.34 768.27,770.20 C769.31,769.30 770.35,769.03 770.78,769.57 C771.19,770.08 772.82,771.95 774.41,773.72 L 777.31 776.93 L 774.90 778.95 C773.58,780.06 770.27,782.10 767.55,783.48 ZM 681.80 773.75 L 676.78 786.00 L 670.95 786.00 C667.74,786.00 664.86,785.59 664.55,785.08 C664.05,784.27 659.58,773.51 648.52,746.50 C648.12,745.53 647.75,744.63 647.41,743.80 C644.97,737.90 643.97,735.48 644.75,734.56 C645.29,733.92 646.67,734.00 649.02,734.12 C649.49,734.15 650.01,734.18 650.57,734.20 L 657.30 734.50 L 663.91 751.67 C667.54,761.12 670.77,769.10 671.08,769.42 C671.40,769.73 674.70,762.00 678.42,752.24 C682.14,742.49 685.48,734.21 685.84,733.86 C687.02,732.73 698.16,734.16 697.62,735.38 C696.96,736.87 688.06,758.45 681.80,773.75 ZM 212.00 744.00 L 212.00 786.00 L 206.17 786.00 C202.96,786.00 200.03,785.70 199.67,785.33 C199.30,784.97 199.00,775.52 199.00,764.33 L 199.00 744.00 L 183.00 744.00 L 183.00 734.00 L 204.89 734.00 C205.92,734.00 206.90,734.00 207.84,734.00 C221.93,733.99 226.19,733.99 227.47,735.94 C228.02,736.79 228.02,738.00 228.00,739.74 C228.00,740.01 228.00,740.29 228.00,740.58 L 228.00 744.00 ZM 640.62 283.97 C648.17,286.23 655.15,283.18 658.75,276.03 C662.89,267.83 660.94,258.86 654.00,254.18 C651.12,252.24 649.56,251.90 645.21,252.25 C638.75,252.76 635.26,255.13 632.25,261.02 C627.45,270.41 631.39,281.20 640.62,283.97 ZM 426.02 773.25 C442.08,781.32 456.36,761.88 444.06,748.70 C440.61,745.00 439.78,744.62 434.39,744.27 C429.73,743.97 427.82,744.32 425.24,745.94 C415.12,752.29 415.57,768.00 426.02,773.25 ZM 492.90 252.73 C495.09,254.19 497.79,255.00 500.50,255.00 C516.10,255.00 520.71,231.18 506.33,224.82 C495.98,220.24 486.00,227.39 486.00,239.37 C486.00,244.75 488.66,249.90 492.90,252.73 ZM 785.30 439.05 C790.17,441.26 792.82,441.43 798.03,439.87 C808.25,436.81 811.58,428.05 806.84,416.69 C805.65,413.83 804.35,411.13 803.97,410.68 C803.29,409.90 775.00,423.44 775.00,424.54 C775.00,424.82 776.37,427.78 778.05,431.10 C780.54,436.03 781.88,437.50 785.30,439.05 ZM 737.38 337.20 C726.59,346.72 717.43,354.63 717.03,354.78 C716.63,354.94 714.59,353.18 712.50,350.87 L 708.71 346.67 L 713.62 342.09 C721.09,335.10 743.18,315.43 746.34,312.94 L 749.15 310.74 L 753.07 314.57 C755.23,316.68 757.00,318.74 757.00,319.16 C757.00,319.57 748.17,327.69 737.38,337.20 ZM 265.34 411.11 C263.88,413.80 262.42,416.00 262.09,416.00 C261.77,415.99 259.92,415.03 258.00,413.85 C254.05,411.44 243.40,405.41 228.22,396.98 C222.56,393.84 217.69,391.03 217.40,390.73 C216.79,390.13 221.72,380.00 222.62,380.00 C222.94,380.00 227.32,382.40 232.35,385.34 C237.38,388.28 247.46,393.93 254.75,397.90 C262.04,401.88 268.00,405.37 268.00,405.68 C268.00,405.98 266.80,408.43 265.34,411.11 ZM 717.77 759.75 L 717.50 785.50 L 711.75 785.80 L 706.00 786.10 L 706.00 734.00 L 718.03 734.00 ZM 608.67 760.33 C609.73,761.39 618.40,761.11 621.87,759.89 C623.62,759.29 625.48,757.97 626.02,756.96 C627.68,753.87 627.15,748.54 624.96,746.19 C623.22,744.31 621.85,744.00 615.46,744.00 L 608.00 744.00 L 608.00 751.83 C608.00,756.14 608.30,759.97 608.67,760.33 ZM 213.81 443.66 C216.94,444.87 220.08,445.89 220.79,445.93 C222.15,446.00 225.28,439.53 226.45,434.21 C227.05,431.48 226.71,430.56 224.16,428.00 C221.01,424.85 218.22,424.28 214.86,426.08 C212.77,427.19 206.51,439.84 207.54,440.87 C207.86,441.19 210.68,442.44 213.81,443.66 ZM 369.00 744.00 L 369.00 761.00 L 375.55 761.00 C381.16,761.00 382.44,760.65 384.55,758.55 C386.24,756.85 387.00,754.98 387.00,752.50 C387.00,750.02 386.24,748.15 384.55,746.45 C382.44,744.35 381.16,744.00 375.55,744.00 ZM 808.56 493.79 C808.94,495.00 811.18,493.81 822.78,486.22 C824.04,485.40 824.89,484.55 824.67,484.34 C823.99,483.66 806.69,481.08 805.93,481.54 C805.34,481.91 806.53,487.48 808.56,493.79 ZM 414.12 253.27 L 414.00 260.04 L 416.75 259.36 C421.89,258.10 425.92,256.50 426.08,255.66 C426.17,255.19 423.83,251.63 420.87,247.74 C415.52,240.69 415.50,240.68 414.87,243.58 C414.52,245.19 414.18,249.55 414.12,253.27 ZM 586.14 446.21 C586.77,446.42 588.16,446.66 589.23,446.74 C591.01,446.88 591.05,446.70 589.72,444.69 C587.76,441.75 585.00,441.25 585.00,443.84 C585.00,444.94 585.51,446.00 586.14,446.21 ZM 579.58 440.36 C580.28,442.18 582.54,442.55 583.51,440.99 C583.85,440.44 583.09,439.59 581.81,439.11 C579.04,438.06 578.76,438.21 579.58,440.36 ZM 622.18 553.87 C636.83,553.68 641.18,553.32 641.92,552.60 C641.90,552.62 641.89,552.63 641.88,552.65 C641.21,553.45 639.50,554.04 638.08,553.95 C637.38,553.91 631.36,553.88 622.18,553.87 ZM 367.32 594.63 C366.68,598.74 367.44,601.37 369.53,603.86 C370.06,604.48 370.62,605.03 371.20,605.50 C368.73,603.68 367.00,600.72 367.00,597.07 C367.00,596.50 367.11,595.65 367.32,594.63 ZM 382.07 553.90 L 377.75 554.29 L 377.73 554.00 L 381.62 553.91 C381.70,553.90 381.86,553.90 382.07,553.90 ZM 384.00 604.41 C384.11,604.31 384.21,604.20 384.32,604.09 C384.14,604.30 383.95,604.51 383.74,604.71 C382.55,605.90 381.19,606.69 379.78,607.11 C381.25,606.61 382.69,605.71 384.00,604.41 ZM 386.48 598.12 C386.61,594.29 385.30,589.19 382.51,582.50 C385.34,589.28 386.65,594.31 386.48,598.12 ZM 642.68 549.80 C643.16,547.05 643.64,542.60 643.94,537.84 C643.62,542.81 643.16,547.12 642.68,549.80 ZM 653.25 524.64 C652.82,524.82 652.51,525.72 652.32,527.20 C652.50,525.73 652.81,524.82 653.24,524.62 C653.26,524.62 653.27,524.63 653.25,524.64 Z" fill="rgb(43,86,119)"/>
<path d="M 321.69 517.58 L 323.00 518.00 C324.38,518.44 324.91,518.85 324.19,518.90 C323.47,518.96 323.19,519.50 323.57,520.11 C323.94,520.72 324.53,528.71 324.88,537.86 C325.37,551.10 325.78,554.44 326.86,554.21 C327.60,554.06 328.92,554.51 329.80,555.21 C331.13,556.29 331.25,556.26 330.55,555.00 C329.88,553.80 329.97,553.74 331.01,554.71 C331.85,555.49 331.99,556.40 331.41,557.27 C330.91,558.01 331.33,557.64 332.35,556.44 C333.98,554.51 334.18,552.54 334.05,539.63 C333.96,530.02 334.27,525.00 334.95,525.00 C335.63,525.00 336.00,529.78 336.00,538.53 C336.00,550.15 336.23,552.15 337.64,552.69 C340.15,553.66 355.40,553.38 365.93,552.17 C371.73,551.51 375.96,551.45 376.93,552.02 C377.97,552.63 375.16,553.02 368.50,553.18 L 358.50 553.41 L 367.25 553.74 C371.02,553.89 373.28,553.82 374.55,554.39 C371.61,554.17 364.12,553.89 355.50,553.69 L 335.50 553.21 L 332.37 556.61 C329.94,559.23 328.43,560.00 325.70,560.00 C322.41,560.00 322.04,559.67 320.33,555.25 C318.08,549.41 317.81,530.30 319.86,522.25 C320.54,519.60 321.01,518.24 321.69,517.58 ZM 664.57 559.72 L 663.72 551.25 C662.86,542.77 663.32,526.88 664.60,520.25 C665.16,517.35 665.08,517.03 662.72,517.00 C662.82,517.00 662.91,517.00 663.01,517.00 C666.64,517.00 666.88,517.21 668.39,521.64 C671.68,531.30 671.38,549.24 667.80,556.75 C667.07,558.28 665.93,559.28 664.57,559.72 ZM 425.00 524.00 L 384.75 524.17 C362.61,524.27 346.45,524.52 348.83,524.74 C350.98,524.93 352.10,525.17 352.51,525.62 C352.74,525.88 352.75,526.21 352.58,526.64 C352.26,527.48 352.00,533.75 352.00,540.58 C352.00,548.19 351.61,553.00 351.00,553.00 C350.45,553.00 350.05,552.66 350.12,552.25 C350.18,551.84 350.14,545.65 350.03,538.50 C349.86,528.19 349.62,526.20 348.85,528.88 C348.31,530.74 348.02,536.92 348.19,542.63 C348.42,550.43 348.19,553.00 347.25,553.00 C346.33,553.00 345.94,549.67 345.78,540.25 L 345.57 527.50 L 345.25 540.25 C345.06,548.06 344.54,553.00 343.92,553.00 C343.26,553.00 343.00,547.90 343.20,538.50 L 343.50 524.00 L 425.00 524.00 ZM 420.75 536.61 C416.28,533.22 419.85,529.76 427.99,529.61 C432.96,529.52 434.31,529.88 436.22,531.81 L 438.50 534.12 L 436.14 536.06 C433.33,538.37 423.53,538.72 420.75,536.61 ZM 604.86 536.06 L 602.50 534.12 L 604.75 531.84 C608.80,527.72 622.00,529.37 622.00,534.00 C622.00,536.72 619.01,538.00 612.68,538.00 C608.76,538.00 606.56,537.45 604.86,536.06 ZM 569.25 536.97 C563.81,534.78 569.16,529.00 576.61,529.00 C583.02,529.00 587.54,534.57 583.07,536.96 C580.73,538.22 572.36,538.22 569.25,536.97 ZM 373.50 536.00 C371.78,534.10 371.77,533.91 373.43,532.07 C376.99,528.14 388.88,528.64 390.47,532.79 C392.31,537.59 377.48,540.39 373.50,536.00 ZM 458.05 536.24 C455.10,533.86 456.21,531.55 460.99,530.12 C466.99,528.32 474.91,530.62 474.98,534.19 C474.99,534.57 474.00,535.59 472.78,536.44 C469.67,538.62 460.84,538.50 458.05,536.24 ZM 531.75 536.61 C530.79,535.88 530.00,534.56 530.00,533.67 C530.00,530.22 539.08,528.17 544.45,530.41 C551.31,533.28 547.94,537.94 539.00,537.94 C535.97,537.94 532.71,537.34 531.75,536.61 ZM 494.87 536.10 C492.55,534.22 492.54,534.16 494.41,532.10 C495.95,530.40 497.49,530.00 502.45,530.00 C508.80,530.00 511.00,531.07 511.00,534.16 C511.00,536.66 507.93,538.00 502.18,538.00 C498.79,538.00 496.48,537.40 494.87,536.10 ZM 550.79 524.15 L 550.78 524.15 C522.54,524.12 501.19,523.99 497.13,523.82 C502.29,524.03 535.42,524.14 575.01,524.06 L 653.14 523.91 L 654.23 522.67 C654.08,523.02 654.02,523.33 654.07,523.61 C654.16,524.10 654.11,530.35 653.97,537.50 C653.73,549.06 653.61,549.78 652.96,544.00 C652.13,536.55 651.92,530.48 652.32,527.20 C652.32,527.20 652.32,527.20 652.32,527.20 C652.51,525.72 652.82,524.82 653.25,524.64 C653.27,524.63 653.26,524.62 653.24,524.62 C653.24,524.62 653.25,524.61 653.25,524.61 C653.94,524.31 615.35,524.10 567.50,524.14 C561.80,524.15 556.21,524.15 550.79,524.15 ZM 642.68 549.80 L 642.68 549.80 C643.16,547.12 643.62,542.81 643.94,537.84 L 644.78 524.50 L 644.73 539.00 L 644.68 553.50 L 649.20 553.80 C650.87,553.91 652.14,554.14 653.24,554.61 C651.32,554.14 647.65,553.92 639.55,553.83 C640.52,553.63 641.43,553.19 641.88,552.65 C641.89,552.63 641.90,552.62 641.92,552.60 C641.93,552.58 641.94,552.57 641.95,552.56 C642.17,552.29 642.43,551.30 642.68,549.80 ZM 639.76 547.75 C640.01,544.86 640.56,540.03 640.99,537.00 L 641.76 531.50 L 641.88 537.61 C642.02,544.81 641.03,553.00 640.01,553.00 C639.62,553.00 639.50,550.64 639.76,547.75 ZM 586.14 446.21 C585.51,446.00 585.00,444.94 585.00,443.84 C585.00,441.25 587.76,441.75 589.72,444.69 C591.05,446.70 591.01,446.88 589.23,446.74 C588.16,446.66 586.77,446.42 586.14,446.21 ZM 579.58 440.36 C578.76,438.21 579.04,438.06 581.81,439.11 C583.09,439.59 583.85,440.44 583.51,440.99 C582.54,442.55 580.28,442.18 579.58,440.36 ZM 405.80 550.25 C406.13,548.56 406.51,548.08 406.80,549.00 C407.06,549.83 407.71,551.06 408.26,551.75 C408.98,552.66 408.71,553.00 407.26,553.00 C405.64,553.00 405.37,552.50 405.80,550.25 ZM 640.70 527.61 C640.29,526.57 640.19,525.48 640.48,525.19 C641.39,524.28 642.19,525.77 641.81,527.67 C641.46,529.41 641.41,529.41 640.70,527.61 ZM 375.91 556.43 C376.10,557.86 375.83,560.10 375.40,563.66 C375.29,564.53 375.18,565.47 375.06,566.50 C374.87,568.16 374.53,570.06 374.08,572.08 C374.56,569.73 374.93,567.31 375.21,564.71 C375.57,561.34 375.82,558.29 375.91,556.43 ZM 661.77 517.05 C660.41,517.27 658.62,518.25 657.11,519.44 C658.69,517.82 659.88,517.21 661.77,517.05 ZM 328.92 518.46 C327.19,517.53 325.18,517.03 323.20,517.10 L 322.48 517.13 C322.79,517.03 323.14,517.00 323.55,517.00 C325.36,517.00 327.27,517.55 328.92,518.46 ZM 656.27 556.77 C656.35,556.84 656.42,556.92 656.49,556.99 C656.41,556.92 656.34,556.84 656.27,556.77 Z" fill="rgb(76,33,11)"/>
<path d="M 0.00 512.00 L 0.00 0.00 L 512.00 0.00 L 1024.00 0.00 L 1024.00 512.00 L 1024.00 1024.00 L 512.00 1024.00 L 0.00 1024.00 L 0.00 512.00 ZM 525.72 783.96 C530.29,781.99 533.59,777.64 534.61,772.26 C536.19,763.89 531.79,758.90 519.06,754.63 C508.12,750.96 505.50,748.50 508.93,745.07 C511.55,742.45 515.82,742.45 523.00,745.08 C530.95,747.99 530.97,747.99 533.01,742.67 L 534.87 737.83 L 530.19 735.74 C523.63,732.81 510.51,732.15 504.50,734.45 C496.39,737.54 492.51,745.07 494.89,753.04 C496.67,758.96 500.63,761.35 514.71,764.97 C519.74,766.27 522.00,768.30 522.00,771.54 C522.00,777.17 512.31,777.65 502.43,772.50 C498.74,770.58 495.62,769.00 495.49,769.00 C494.72,769.00 491.97,778.15 492.49,778.99 C493.58,780.74 500.72,783.98 506.76,785.45 C513.36,787.06 519.67,786.57 525.72,783.96 ZM 212.00 765.00 L 212.00 744.00 L 220.00 744.00 L 228.00 744.00 L 228.00 740.58 C228.00,733.70 229.07,734.00 204.89,734.00 L 183.00 734.00 L 183.00 739.00 L 183.00 744.00 L 191.00 744.00 L 199.00 744.00 L 199.00 764.33 C199.00,775.52 199.30,784.97 199.67,785.33 C200.03,785.70 202.96,786.00 206.17,786.00 L 212.00 786.00 L 212.00 765.00 ZM 275.00 781.00 L 275.00 776.00 L 261.56 776.00 C254.17,776.00 247.91,775.66 247.65,775.25 C247.40,774.84 247.43,772.36 247.72,769.75 L 248.26 765.00 L 259.63 765.00 L 271.00 765.00 L 271.00 760.00 L 271.00 755.00 L 259.50 755.00 L 248.00 755.00 L 248.00 749.50 L 248.00 744.00 L 261.50 744.00 L 275.00 744.00 L 275.00 739.00 L 275.00 734.00 L 255.00 734.00 L 235.00 734.00 L 235.00 760.00 L 235.00 786.00 L 255.00 786.00 L 275.00 786.00 L 275.00 781.00 ZM 298.22 770.25 L 298.50 754.50 L 304.72 766.67 C313.94,784.73 316.03,784.68 325.20,766.20 L 331.50 753.50 L 331.77 769.80 L 332.05 786.10 L 337.54 785.80 C340.55,785.63 343.02,785.16 343.01,784.75 C343.01,784.34 343.00,772.75 343.00,759.00 L 343.00 734.00 L 336.51 734.00 L 330.01 734.00 L 323.59 746.75 C320.06,753.76 316.56,760.31 315.82,761.29 C314.60,762.91 313.70,761.62 306.99,748.54 L 299.52 734.00 L 292.76 734.00 L 286.00 734.00 L 286.00 752.35 C286.00,762.44 286.29,774.14 286.65,778.35 L 287.29 786.00 L 292.62 786.00 L 297.95 786.00 L 298.22 770.25 ZM 369.00 779.09 L 369.00 772.17 L 376.75 771.47 C388.72,770.38 393.49,767.88 397.11,760.79 C400.56,754.02 399.34,745.14 394.19,739.63 C389.66,734.79 386.43,734.00 371.03,734.00 L 357.00 734.00 L 357.00 759.33 C357.00,773.27 357.30,784.97 357.67,785.33 C358.03,785.70 360.73,786.00 363.67,786.00 L 369.00 786.00 L 369.00 779.09 ZM 444.57 784.11 C465.59,774.56 466.71,746.56 446.50,735.67 C443.25,733.92 440.81,733.51 433.50,733.52 C425.61,733.52 423.85,733.86 419.24,736.28 C410.29,740.98 404.38,751.48 405.19,761.24 C406.40,775.84 418.08,785.85 434.00,785.93 C438.24,785.95 441.91,785.31 444.57,784.11 ZM 585.00 781.03 L 585.00 776.06 L 571.25 775.78 L 557.50 775.50 L 557.20 769.61 L 556.89 763.72 L 566.45 764.22 C580.31,764.95 581.00,764.72 581.00,759.42 L 581.00 755.06 L 569.25 754.78 L 557.50 754.50 L 557.20 749.25 L 556.90 744.00 L 570.95 744.00 L 585.00 744.00 L 585.00 739.00 L 585.00 734.00 L 565.00 734.00 L 545.00 734.00 L 545.00 760.00 L 545.00 786.00 L 565.00 786.00 L 585.00 786.00 L 585.00 781.03 ZM 608.00 778.00 L 608.00 770.00 L 612.99 770.00 L 617.97 770.00 L 622.62 778.00 L 627.27 786.00 L 634.25 786.00 L 641.23 786.00 L 639.41 783.25 C635.46,777.28 631.00,769.57 631.00,768.70 C631.00,768.20 632.07,766.95 633.37,765.92 C637.01,763.06 639.00,757.88 639.00,751.25 C639.00,744.10 636.49,739.69 630.47,736.28 C626.84,734.22 625.20,734.03 611.25,734.02 L 596.00 734.00 L 596.00 760.00 L 596.00 786.00 L 602.00 786.00 L 608.00 786.00 L 608.00 778.00 ZM 681.80 773.75 C688.06,758.45 696.96,736.87 697.62,735.38 C698.16,734.16 687.02,732.73 685.84,733.86 C685.48,734.21 682.14,742.49 678.42,752.24 C674.70,762.00 671.40,769.73 671.08,769.42 C670.77,769.10 667.54,761.12 663.91,751.67 L 657.30 734.50 L 650.57 734.20 C642.76,733.86 642.93,732.84 648.52,746.50 C659.58,773.51 664.05,784.27 664.55,785.08 C664.86,785.59 667.74,786.00 670.95,786.00 L 676.78 786.00 L 681.80 773.75 ZM 717.77 759.75 L 718.03 734.00 L 712.02 734.00 L 706.00 734.00 L 706.00 760.05 L 706.00 786.10 L 711.75 785.80 L 717.50 785.50 L 717.77 759.75 ZM 767.55 783.48 C770.27,782.10 773.58,780.06 774.90,778.95 L 777.31 776.93 L 774.41 773.72 C772.82,771.95 771.19,770.08 770.78,769.57 C770.35,769.03 769.31,769.30 768.27,770.20 C762.42,775.34 755.09,776.30 748.78,772.76 C741.63,768.74 738.95,759.33 742.85,751.98 C747.29,743.63 757.52,741.41 766.21,746.92 L 770.80 749.83 L 774.01 745.84 L 777.21 741.85 L 775.01 739.51 C773.80,738.22 770.50,736.17 767.70,734.96 C761.17,732.16 749.72,732.53 743.46,735.75 C738.17,738.47 731.61,745.66 729.92,750.58 C728.08,755.97 728.37,765.86 730.49,770.07 C732.70,774.45 738.63,780.71 742.49,782.73 C750.38,786.87 760.32,787.16 767.55,783.48 ZM 826.00 780.62 L 826.00 775.24 L 812.25 775.37 L 798.50 775.50 L 798.50 770.00 L 798.50 764.50 L 810.25 764.22 L 822.00 763.94 L 822.00 759.47 L 822.00 755.00 L 811.58 755.00 C805.85,755.00 800.45,754.73 799.58,754.39 C798.44,753.95 798.00,752.43 798.00,748.89 L 798.00 744.00 L 812.05 744.00 L 826.10 744.00 L 825.80 738.75 L 825.50 733.50 L 821.75 733.55 C819.69,733.58 810.80,733.69 802.00,733.80 L 786.00 734.00 L 786.00 760.00 L 786.00 786.00 L 806.00 786.00 L 826.00 786.00 L 826.00 780.62 ZM 866.60 784.09 C877.06,779.35 879.07,765.92 870.36,759.07 C868.89,757.91 865.17,756.24 862.09,755.36 C853.12,752.77 849.00,750.33 849.00,747.59 C849.00,746.28 849.71,744.94 850.58,744.61 C853.90,743.33 862.62,744.10 866.90,746.04 C869.32,747.14 871.43,747.90 871.60,747.73 C871.77,747.56 872.81,745.42 873.92,742.96 C875.82,738.78 875.84,738.42 874.24,737.22 C871.38,735.07 862.94,733.00 857.07,733.01 C848.96,733.01 844.05,734.71 839.77,738.99 C836.33,742.44 836.00,743.24 836.00,748.25 C836.00,756.89 839.65,760.33 852.83,764.09 C862.79,766.94 865.82,771.11 860.47,774.61 C856.80,777.01 848.91,775.86 842.73,772.02 C840.06,770.36 837.68,769.00 837.45,769.00 C836.90,769.00 832.99,776.70 833.03,777.71 C833.09,779.11 838.00,782.15 843.32,784.06 C850.25,786.56 861.14,786.57 866.60,784.09 ZM 353.63 698.79 C354.10,698.02 350.39,693.78 343.36,687.04 C317.14,661.93 299.12,635.36 285.71,602.00 C274.00,572.88 268.31,534.21 270.92,501.50 C275.23,447.54 297.88,396.91 335.50,357.12 C352.00,339.68 377.15,320.74 399.27,309.10 C445.57,284.76 506.48,275.98 559.00,286.09 C603.55,294.66 643.03,313.91 676.75,343.49 C706.93,369.97 730.84,405.80 743.82,444.00 C753.17,471.51 756.00,488.66 756.00,517.76 C756.00,545.67 753.13,564.22 744.83,589.85 C731.97,629.55 707.33,666.58 675.62,693.83 C672.09,696.86 671.88,697.31 673.31,698.74 C674.74,700.17 675.50,699.76 681.69,694.23 C694.64,682.67 706.23,669.79 715.50,656.69 C717.70,653.57 721.21,648.66 723.31,645.76 C729.77,636.84 743.28,608.54 748.25,593.50 C768.07,533.60 764.27,473.13 737.14,416.58 C710.43,360.91 664.09,318.02 606.07,295.25 C575.81,283.38 547.49,278.05 514.50,278.02 C461.72,277.97 413.52,292.11 373.51,319.41 C337.97,343.65 309.82,375.57 291.04,412.91 C263.44,467.82 258.55,529.79 277.08,590.12 C284.32,613.72 299.97,643.15 316.27,663.81 C323.08,672.46 350.13,700.00 351.80,700.00 C352.39,700.00 353.22,699.46 353.63,698.79 ZM 359.77 684.78 C358.95,683.53 354.99,678.90 350.98,674.50 C316.61,636.83 296.78,595.67 289.81,547.50 C287.79,533.55 288.11,493.87 290.34,482.09 C292.64,469.93 297.38,451.51 300.66,442.00 C306.48,425.11 320.29,399.63 332.91,382.49 C351.11,357.78 381.59,331.40 408.69,316.93 C413.20,314.52 416.74,312.41 416.57,312.24 C415.56,311.23 395.53,321.31 385.50,327.87 C338.78,358.41 306.35,401.41 290.43,453.92 C280.64,486.23 278.62,524.07 284.95,556.50 C288.99,577.21 291.50,585.99 297.62,600.82 C309.76,630.25 324.99,653.13 347.25,675.35 C359.09,687.17 363.54,690.52 359.77,684.78 ZM 694.04 659.30 C700.62,651.26 713.96,631.59 718.89,622.66 C731.08,600.60 741.09,568.65 743.93,542.79 C745.91,524.83 745.31,498.96 742.54,482.61 C739.26,463.27 737.91,458.19 731.34,440.50 C725.25,424.12 723.40,420.15 715.32,406.15 C706.78,391.35 701.06,383.40 689.28,370.00 C669.91,347.94 649.42,331.82 624.01,318.64 C606.83,309.73 601.64,308.34 617.00,316.77 C682.18,352.54 725.46,413.44 736.55,485.00 C738.80,499.53 738.83,534.66 736.60,549.10 C729.06,597.91 709.40,637.32 672.11,678.38 C668.20,682.68 665.29,686.65 665.63,687.21 C666.38,688.43 685.88,669.29 694.04,659.30 ZM 634.16 677.55 C641.78,675.94 651.34,671.48 657.33,666.75 L 661.43 663.50 L 650.31 662.91 C640.21,662.37 638.48,661.98 631.43,658.63 C611.93,649.37 598.66,635.52 580.02,605.00 C564.35,579.33 554.50,567.07 542.55,558.34 L 536.60 554.00 L 586.05 553.88 C659.92,553.70 652.76,553.38 656.54,557.04 C660.72,561.09 665.79,560.96 667.80,556.75 C671.38,549.24 671.68,531.30 668.39,521.64 C666.88,517.21 666.64,517.00 663.01,517.00 C659.93,517.00 658.63,517.65 656.17,520.45 L 653.14 523.91 L 575.01 524.06 C532.04,524.15 496.68,524.01 496.43,523.77 C496.19,523.52 499.48,521.69 503.74,519.70 C517.44,513.30 534.31,512.46 559.00,516.95 C573.63,519.62 590.64,519.47 597.40,516.62 C602.62,514.42 601.51,513.70 595.04,515.08 C587.71,516.66 569.38,515.62 558.50,513.01 C546.34,510.10 526.94,509.31 517.50,511.34 C511.19,512.70 510.70,512.70 512.50,511.31 C513.60,510.47 516.53,508.81 519.00,507.64 C523.00,505.74 525.11,505.51 538.00,505.62 C549.41,505.72 554.21,506.20 560.50,507.90 C573.56,511.41 585.93,512.57 592.75,510.94 L 598.50 509.56 L 587.50 508.92 C579.79,508.48 572.27,507.20 562.34,504.64 C547.66,500.87 537.74,500.07 528.25,501.91 C523.25,502.88 522.55,501.62 527.25,500.12 C536.26,497.23 553.64,498.40 571.00,503.04 C587.24,507.39 602.20,506.47 614.26,500.38 C619.19,497.89 626.25,492.97 623.00,494.30 C622.17,494.63 617.75,496.46 613.17,498.35 C599.15,504.14 592.54,504.07 565.50,497.81 C555.42,495.48 550.14,494.81 542.00,494.81 C532.83,494.82 531.82,494.66 534.00,493.54 C540.70,490.10 552.58,490.81 571.50,495.78 C591.11,500.93 609.20,498.70 622.58,489.49 C627.44,486.14 638.00,475.11 638.00,473.38 C638.00,472.96 636.54,473.97 634.75,475.63 C623.19,486.38 606.26,494.00 593.94,494.00 C587.78,494.00 589.68,493.00 598.88,491.40 C609.66,489.53 615.95,486.90 623.87,480.95 C632.82,474.23 640.95,464.39 645.97,454.21 C648.25,449.58 649.92,445.59 649.67,445.34 C649.42,445.09 647.52,447.72 645.44,451.19 C635.18,468.37 622.20,479.85 609.00,483.44 C607.62,483.81 608.86,482.79 611.74,481.15 C623.88,474.28 633.16,465.40 639.46,454.65 C642.61,449.29 650.23,430.74 648.97,431.52 C648.46,431.83 646.40,435.11 644.39,438.79 C637.87,450.72 632.79,458.03 626.46,464.58 C618.41,472.91 616.04,472.95 623.66,464.62 C631.08,456.52 635.97,448.23 641.14,435.00 C646.14,422.17 648.58,417.20 651.34,414.19 C652.91,412.48 653.03,412.05 651.82,412.51 C649.17,413.53 642.25,424.21 636.78,435.74 C631.59,446.68 626.09,456.00 624.84,456.00 C624.46,456.00 626.78,450.71 629.99,444.25 C633.21,437.79 638.07,427.24 640.79,420.81 C645.70,409.22 651.21,400.37 655.31,397.49 C656.75,396.49 656.97,396.00 655.98,396.00 C652.80,396.00 642.26,409.01 635.53,421.25 C631.83,427.99 629.10,432.60 629.47,431.50 C629.84,430.40 630.39,427.41 630.70,424.86 C631.14,421.18 632.39,418.80 636.74,413.36 C639.76,409.59 643.99,403.92 646.15,400.76 C650.24,394.75 654.44,385.99 653.21,386.01 C652.82,386.02 650.30,389.41 647.60,393.55 C642.90,400.78 634.95,408.99 630.58,411.13 C629.44,411.69 631.52,409.40 635.20,406.03 C642.45,399.42 650.12,388.75 652.51,381.98 C653.33,379.65 653.96,375.44 653.91,372.62 L 653.82 367.50 L 652.53 372.19 C650.43,379.79 647.32,385.31 641.44,391.80 C634.82,399.12 626.70,404.26 618.36,406.41 C610.20,408.52 607.22,408.31 613.51,406.07 C625.02,401.97 635.41,395.18 640.12,388.68 C644.35,382.83 643.64,382.42 638.25,387.61 C629.82,395.72 624.42,398.14 600.58,404.46 C593.25,406.41 585.63,408.67 583.66,409.50 C581.68,410.32 579.49,410.98 578.78,410.96 C575.97,410.86 585.27,406.96 599.00,402.48 C615.38,397.13 623.47,393.25 627.64,388.75 L 630.50 385.67 L 627.00 388.24 C621.88,391.99 617.11,393.75 601.55,397.62 C583.41,402.14 573.18,407.15 563.34,416.34 C559.30,420.11 556.00,422.96 556.00,422.68 C556.00,422.40 558.00,419.82 560.45,416.95 C569.01,406.92 581.00,399.71 597.00,394.99 C604.47,392.78 613.69,388.56 617.50,385.61 C620.30,383.44 618.76,383.63 614.81,385.93 C612.99,386.99 605.20,389.48 597.50,391.45 C589.39,393.52 580.35,396.60 576.02,398.77 C563.97,404.78 551.55,417.82 546.02,430.26 C544.79,433.05 544.12,433.81 544.07,432.48 C543.95,428.98 552.82,414.76 559.07,408.44 C566.04,401.40 572.86,397.04 584.30,392.31 C590.70,389.66 591.62,389.06 588.50,389.55 C583.58,390.32 570.61,395.25 564.24,398.77 C556.37,403.12 546.49,413.75 542.52,422.15 C537.29,433.22 535.91,441.59 536.12,460.96 C536.26,473.50 535.92,478.74 534.74,482.62 C533.26,487.48 530.33,494.00 529.62,494.00 C529.44,494.00 529.97,491.64 530.79,488.75 C531.89,484.86 532.34,477.15 532.51,459.00 C532.77,432.19 533.19,429.64 539.15,419.09 C543.39,411.57 547.64,406.40 552.89,402.37 C558.25,398.26 556.50,397.87 550.68,401.88 C544.88,405.87 537.19,414.31 535.29,418.77 C534.42,420.82 532.42,426.74 530.85,431.91 C528.16,440.81 528.00,442.34 528.00,459.91 C528.00,477.81 526.47,492.41 524.14,496.72 C523.62,497.70 521.96,499.62 520.47,501.00 L 517.75 503.50 L 519.79 499.47 C524.27,490.58 525.42,484.26 525.00,471.00 C523.86,435.51 524.81,427.94 531.70,417.71 C535.69,411.77 535.85,410.87 532.36,414.08 C528.52,417.59 522.98,430.18 521.42,438.93 C520.61,443.47 520.06,454.12 520.03,465.54 C519.99,491.04 517.80,499.09 508.12,509.33 C504.95,512.69 499.00,516.80 499.00,515.63 C499.00,515.41 500.82,513.03 503.03,510.36 C512.85,498.53 515.41,487.68 514.44,462.00 C513.85,446.17 513.98,443.70 515.90,436.08 C517.06,431.46 519.14,425.65 520.52,423.18 C524.08,416.82 523.01,417.01 518.52,423.53 C511.23,434.12 508.84,445.97 509.70,467.31 C510.34,483.05 509.26,489.80 504.52,499.78 C498.17,513.18 484.00,524.00 472.81,524.00 L 468.13 524.00 L 467.74 486.25 C467.31,443.59 466.72,439.37 459.05,423.50 C452.31,409.56 438.16,398.03 424.20,395.11 C406.78,391.46 386.76,396.60 374.79,407.79 C367.98,414.16 364.93,419.71 364.28,426.90 C363.54,435.05 364.57,439.44 368.20,443.57 C372.34,448.29 375.93,450.00 381.70,450.00 C395.42,449.99 401.06,434.48 390.39,426.09 C385.51,422.25 377.13,423.92 374.35,429.29 C372.50,432.86 371.57,432.21 372.50,428.00 C374.11,420.67 383.44,414.06 392.24,414.02 C402.99,413.97 412.85,420.39 418.48,431.10 C424.32,442.21 425.00,448.19 425.00,488.59 L 425.00 524.00 L 379.52 524.00 L 334.05 524.00 L 332.51 521.65 C330.75,518.96 326.97,517.00 323.55,517.00 C321.55,517.00 321.00,517.78 319.86,522.25 C317.81,530.30 318.08,549.41 320.33,555.25 C322.04,559.67 322.41,560.00 325.70,560.00 C328.43,560.00 329.94,559.23 332.37,556.61 L 335.50 553.21 L 355.50 553.69 C366.50,553.95 375.67,554.33 375.88,554.54 C376.08,554.75 375.78,559.32 375.21,564.71 C374.47,571.64 373.11,577.23 370.58,583.84 C368.61,588.97 367.00,594.93 367.00,597.07 C367.00,606.08 377.56,610.90 383.74,604.71 C387.76,600.69 387.40,594.22 382.51,582.50 C379.31,574.85 378.68,572.06 378.25,563.89 L 377.75 554.29 L 383.62 553.76 C388.68,553.31 394.98,553.33 420.75,553.91 L 425.00 554.00 L 424.99 593.75 C424.99,615.81 424.53,636.39 423.96,640.00 C422.44,649.72 417.47,661.26 412.38,666.93 C409.97,669.60 408.00,672.13 408.00,672.54 C408.00,673.89 421.00,671.97 427.31,669.68 C445.29,663.15 458.61,647.72 465.14,625.82 C467.07,619.35 467.39,615.30 467.91,591.00 L 468.50 563.50 L 477.44 563.66 C485.81,563.81 486.91,564.09 494.67,568.03 C508.78,575.18 519.99,587.34 532.45,609.00 C549.34,638.36 556.54,648.03 570.00,659.40 C578.54,666.61 585.98,671.05 594.56,674.06 C608.66,679.01 621.81,680.17 634.16,677.55 ZM 379.07 616.96 C380.17,616.37 381.00,614.88 381.00,613.46 C381.00,611.21 380.62,611.00 376.50,611.00 C372.72,611.00 372.00,611.31 372.00,612.93 C372.00,614.97 374.47,618.00 376.14,618.00 C376.68,618.00 378.00,617.53 379.07,616.96 ZM 354.08 596.42 C357.40,592.87 357.09,586.77 353.05,576.29 C351.31,571.78 349.63,566.49 349.31,564.54 C348.70,560.74 347.00,559.65 347.00,563.06 C347.00,564.20 345.20,569.91 343.00,575.74 C338.27,588.29 338.03,591.70 341.59,595.92 C345.03,600.01 350.50,600.23 354.08,596.42 ZM 231.50 521.75 C231.80,520.51 232.15,517.70 232.27,515.50 L 232.50 511.50 L 225.71 510.39 C218.80,509.25 218.08,508.76 214.50,502.73 L 212.86 499.96 L 216.68 498.42 C236.33,490.53 236.24,490.60 237.31,481.20 C238.04,474.80 239.26,474.63 220.36,483.58 C212.92,487.11 206.30,489.97 205.66,489.94 C205.02,489.91 200.92,484.95 196.55,478.92 C187.87,466.96 187.50,466.87 186.39,476.32 L 185.74 481.90 L 191.62 489.42 C194.85,493.56 199.00,499.01 200.83,501.54 L 204.15 506.12 L 200.33 505.45 C198.22,505.08 193.43,504.15 189.68,503.39 C185.94,502.62 182.72,502.00 182.53,502.00 C182.22,502.00 180.62,511.21 180.54,513.48 C180.52,514.02 182.07,514.75 184.00,515.10 C187.49,515.74 210.68,520.15 223.00,522.52 C226.57,523.21 229.83,523.83 230.23,523.89 C230.63,523.95 231.21,522.99 231.50,521.75 ZM 805.65 511.93 C809.97,508.86 819.12,502.40 826.00,497.56 C832.88,492.72 838.88,488.42 839.35,487.99 C840.48,486.94 837.95,475.92 836.44,475.34 C834.46,474.58 782.53,466.18 782.13,466.56 C781.26,467.38 783.25,476.11 784.63,477.49 C785.46,478.32 787.89,479.00 790.04,479.00 C794.62,479.00 794.94,479.46 797.88,490.26 C800.79,500.90 800.71,501.37 795.50,504.66 C793.03,506.22 791.00,507.98 791.00,508.57 C791.00,509.16 791.70,512.00 792.56,514.90 C793.99,519.72 794.28,520.05 795.96,518.83 C796.97,518.10 801.33,514.99 805.65,511.93 ZM 242.76 462.23 L 244.71 456.46 L 237.81 453.63 C234.01,452.08 231.04,450.51 231.20,450.15 C231.37,449.79 232.15,447.85 232.92,445.84 C234.45,441.88 234.95,441.67 245.63,440.46 L 251.76 439.77 L 254.36 433.20 C255.79,429.59 256.86,426.53 256.73,426.40 C256.60,426.27 252.45,426.99 247.52,428.00 C242.58,429.01 238.19,429.62 237.77,429.36 C237.35,429.10 237.00,428.12 237.00,427.19 C236.99,426.26 236.11,424.05 235.03,422.29 C230.19,414.34 216.83,410.52 210.09,415.15 C208.22,416.44 205.81,418.68 204.74,420.13 C202.29,423.44 192.92,448.29 193.83,449.09 C194.20,449.41 199.23,451.55 205.00,453.84 C210.77,456.13 220.90,460.20 227.50,462.90 C234.10,465.59 239.80,467.84 240.16,467.90 C240.52,467.95 241.69,465.40 242.76,462.23 ZM 802.39 451.26 C805.08,450.29 809.21,447.81 811.56,445.74 C820.93,437.49 822.40,427.70 816.45,413.31 C811.74,401.94 808.18,395.00 807.04,395.00 C806.18,395.00 761.06,416.61 760.27,417.40 C759.42,418.25 770.91,440.83 773.96,444.31 C780.98,452.29 791.99,454.99 802.39,451.26 ZM 265.34 411.11 C266.80,408.43 268.00,405.98 268.00,405.68 C268.00,405.37 262.04,401.88 254.75,397.90 C247.46,393.93 237.38,388.28 232.35,385.34 C227.32,382.40 222.94,380.00 222.62,380.00 C221.72,380.00 216.79,390.13 217.40,390.73 C217.69,391.03 222.56,393.84 228.22,396.98 C243.40,405.41 254.05,411.44 258.00,413.85 C259.92,415.03 261.77,415.99 262.09,416.00 C262.42,416.00 263.88,413.80 265.34,411.11 ZM 778.50 387.68 C788.40,381.70 796.84,376.49 797.25,376.10 C798.21,375.20 792.23,367.00 790.60,367.00 C789.93,367.00 783.58,370.59 776.49,374.97 C769.40,379.35 763.47,382.81 763.32,382.65 C763.16,382.50 766.44,373.98 770.60,363.73 L 778.17 345.09 L 774.92 341.05 C773.13,338.82 771.39,337.00 771.06,337.00 C770.72,337.00 763.03,341.84 753.97,347.75 C729.72,363.56 727.04,365.42 727.02,366.34 C726.99,367.76 732.43,374.96 733.55,374.98 C734.13,374.99 740.20,371.21 747.05,366.58 C753.90,361.96 759.65,358.32 759.83,358.50 C760.02,358.68 756.71,366.94 752.48,376.84 L 744.80 394.85 L 747.96 399.44 L 751.11 404.02 L 755.80 401.29 C758.39,399.78 768.60,393.66 778.50,387.68 ZM 275.49 387.99 C280.26,385.02 287.76,376.85 289.45,372.78 C290.30,370.74 291.00,366.34 291.00,363.02 C291.00,357.58 290.67,356.61 287.72,353.39 C281.50,346.61 273.60,347.74 261.75,357.10 C256.55,361.21 253.07,361.99 251.00,359.50 C248.39,356.35 254.27,348.46 262.26,344.39 C264.04,343.49 265.64,342.62 265.82,342.47 C266.09,342.24 262.29,334.11 261.47,333.18 C260.82,332.44 252.60,337.37 248.86,340.75 C242.72,346.29 239.02,353.42 239.01,359.72 C239.00,364.11 239.48,365.48 242.05,368.40 C248.50,375.74 255.61,375.44 266.26,367.37 C273.34,362.00 276.54,360.94 278.80,363.20 C282.07,366.47 278.04,373.79 270.64,378.03 C267.81,379.65 264.71,380.99 263.75,380.99 C261.58,381.00 261.55,382.21 263.62,386.30 C266.81,392.56 267.90,392.72 275.49,387.99 ZM 737.38 337.20 C748.17,327.69 757.00,319.57 757.00,319.16 C757.00,318.74 755.23,316.68 753.07,314.57 L 749.15 310.74 L 746.34 312.94 C743.18,315.43 721.09,335.10 713.62,342.09 L 708.71 346.67 L 712.50 350.87 C714.59,353.18 716.63,354.94 717.03,354.78 C717.43,354.63 726.59,346.72 737.38,337.20 ZM 313.80 344.90 C313.97,344.51 311.06,340.70 307.35,336.44 L 300.59 328.69 L 305.55 324.21 C308.27,321.74 312.00,318.57 313.84,317.17 L 317.19 314.62 L 324.34 322.39 L 331.50 330.16 L 335.74 325.81 L 339.97 321.45 L 331.24 311.39 C326.43,305.85 319.00,297.20 314.71,292.16 C310.43,287.12 306.59,283.00 306.17,283.00 C305.75,283.00 303.67,284.78 301.55,286.95 C297.11,291.50 297.10,291.46 305.37,300.65 C307.91,303.48 310.00,306.05 310.00,306.36 C310.00,306.67 306.32,309.89 301.82,313.52 L 293.65 320.12 L 287.00 312.85 L 280.35 305.58 L 275.66 309.42 C271.67,312.69 271.16,313.50 272.24,314.83 C272.93,315.69 278.45,322.10 284.50,329.06 C290.55,336.03 297.68,344.28 300.34,347.40 L 305.18 353.07 L 309.34 349.35 C311.63,347.30 313.64,345.30 313.80,344.90 ZM 701.66 319.13 C708.72,314.81 719.22,308.52 725.00,305.17 C730.78,301.82 736.09,298.72 736.81,298.29 C737.75,297.73 736.65,296.40 733.00,293.69 L 727.89 289.88 L 723.19 292.62 C720.61,294.13 712.94,298.91 706.14,303.24 C699.34,307.57 693.60,310.93 693.38,310.72 C693.16,310.50 695.69,301.97 698.99,291.77 C702.30,281.57 704.99,272.83 704.98,272.36 C704.95,270.97 695.14,264.96 694.53,265.96 C693.90,266.97 683.32,301.45 680.23,312.55 L 678.26 319.61 L 683.26 323.30 C686.01,325.34 688.38,327.00 688.54,327.00 C688.69,327.00 694.60,323.46 701.66,319.13 ZM 361.00 307.30 C361.00,306.93 357.81,300.84 353.90,293.75 C350.00,286.66 346.98,280.68 347.21,280.46 C347.43,280.24 355.11,283.42 364.27,287.53 C373.42,291.64 381.46,295.00 382.12,295.00 C382.78,295.00 385.30,293.84 387.71,292.43 L 392.10 289.85 L 389.66 285.68 C388.32,283.38 382.86,273.62 377.54,264.00 C372.21,254.38 367.49,246.12 367.03,245.65 C366.08,244.68 357.00,249.68 357.00,251.18 C357.00,251.72 360.35,257.98 364.44,265.08 C368.52,272.19 371.71,278.00 371.51,278.00 C371.31,278.00 363.14,274.44 353.35,270.10 L 335.55 262.20 L 330.77 264.62 C328.15,265.95 326.00,267.29 326.00,267.60 C326.00,267.92 329.65,274.77 334.12,282.84 C338.59,290.90 343.83,300.42 345.76,304.00 C350.97,313.60 350.48,313.30 356.10,310.45 C358.79,309.08 361.00,307.67 361.00,307.30 ZM 659.32 292.66 C668.33,287.38 673.00,278.78 673.00,267.47 C673.00,262.76 672.39,260.14 670.41,256.40 C666.85,249.66 664.58,247.44 657.65,243.98 C638.94,234.64 618.04,247.31 618.04,268.00 C618.04,279.47 623.48,287.78 634.50,293.18 C639.82,295.79 641.30,296.08 647.64,295.72 C653.07,295.41 655.88,294.68 659.32,292.66 ZM 408.00 283.51 C411.32,282.37 411.52,282.04 411.80,277.24 C411.96,274.45 412.64,271.74 413.30,271.23 C414.75,270.11 431.16,265.00 433.31,265.00 C434.15,265.00 436.22,266.75 437.91,268.89 L 441.00 272.78 L 446.46 271.09 C449.47,270.16 452.20,269.14 452.52,268.81 C452.85,268.49 448.07,262.21 441.91,254.86 C435.75,247.51 428.01,238.24 424.71,234.25 C421.41,230.26 418.08,227.00 417.30,227.00 C414.66,227.00 406.97,229.24 406.39,230.18 C405.58,231.48 399.21,284.32 399.74,285.29 C400.16,286.07 401.19,285.85 408.00,283.51 ZM 598.80 271.92 C600.98,271.16 602.18,269.90 602.84,267.67 C605.51,258.75 607.05,251.89 606.57,251.11 C606.05,250.27 596.94,247.62 596.57,248.20 C596.47,248.37 595.52,251.65 594.45,255.50 C592.54,262.35 592.43,262.51 589.00,262.78 C584.32,263.16 577.12,259.41 574.26,255.10 C570.05,248.78 571.97,238.23 578.14,233.71 C581.49,231.26 588.71,230.42 593.35,231.95 C595.32,232.60 598.08,234.49 599.47,236.15 C600.87,237.81 602.34,239.01 602.75,238.82 C605.70,237.44 611.00,233.64 611.00,232.90 C611.00,230.77 602.42,223.92 597.39,222.04 C583.18,216.73 568.34,221.91 561.72,234.50 C558.72,240.21 558.70,251.94 561.68,257.50 C564.76,263.22 570.86,268.75 576.57,270.98 C582.14,273.16 593.83,273.65 598.80,271.92 ZM 510.06 264.48 C523.30,259.81 530.56,245.33 526.56,231.57 C523.24,220.13 513.25,213.02 500.50,213.02 C487.47,213.02 476.87,221.02 473.99,233.04 C469.84,250.36 482.19,265.60 500.62,265.91 C503.44,265.96 507.69,265.32 510.06,264.48 ZM 369.00 752.50 L 369.00 744.00 L 375.55 744.00 C381.16,744.00 382.44,744.35 384.55,746.45 C386.24,748.15 387.00,750.02 387.00,752.50 C387.00,754.98 386.24,756.85 384.55,758.55 C382.44,760.65 381.16,761.00 375.55,761.00 L 369.00 761.00 L 369.00 752.50 ZM 426.02 773.25 C415.57,768.00 415.12,752.29 425.24,745.94 C427.82,744.32 429.73,743.97 434.39,744.27 C439.78,744.62 440.61,745.00 444.06,748.70 C456.36,761.88 442.08,781.32 426.02,773.25 ZM 608.67 760.33 C608.30,759.97 608.00,756.14 608.00,751.83 L 608.00 744.00 L 615.46 744.00 C621.85,744.00 623.22,744.31 624.96,746.19 C627.15,748.54 627.68,753.87 626.02,756.96 C625.48,757.97 623.62,759.29 621.87,759.89 C618.40,761.11 609.73,761.39 608.67,760.33 ZM 373.07 599.12 C371.40,596.02 371.80,591.71 374.25,586.16 L 376.50 581.06 L 379.41 588.12 C382.97,596.79 382.39,600.31 377.30,600.81 C374.96,601.04 373.85,600.60 373.07,599.12 ZM 595.11 461.30 C593.93,460.01 593.93,459.66 595.11,458.92 C596.04,458.34 596.61,458.54 596.83,459.55 C597.38,462.06 596.57,462.88 595.11,461.30 ZM 345.65 592.17 C344.74,591.17 344.00,589.55 344.00,588.58 C344.00,586.37 346.97,576.00 347.61,576.00 C348.30,576.00 351.65,584.11 352.43,587.67 C353.57,592.87 349.03,595.90 345.65,592.17 ZM 808.56 493.79 C806.53,487.48 805.34,481.91 805.93,481.54 C806.69,481.08 823.99,483.66 824.67,484.34 C824.89,484.55 824.04,485.40 822.78,486.22 C811.18,493.81 808.94,495.00 808.56,493.79 ZM 213.81 443.66 C210.68,442.44 207.86,441.19 207.54,440.87 C206.51,439.84 212.77,427.19 214.86,426.08 C218.22,424.28 221.01,424.85 224.16,428.00 C226.71,430.56 227.05,431.48 226.45,434.21 C225.28,439.53 222.15,446.00 220.79,445.93 C220.08,445.89 216.94,444.87 213.81,443.66 ZM 785.30 439.05 C781.88,437.50 780.54,436.03 778.05,431.10 C776.37,427.78 775.00,424.82 775.00,424.54 C775.00,423.44 803.29,409.90 803.97,410.68 C804.35,411.13 805.65,413.83 806.84,416.69 C811.58,428.05 808.25,436.81 798.03,439.87 C792.82,441.43 790.17,441.26 785.30,439.05 ZM 640.62 283.97 C631.39,281.20 627.45,270.41 632.25,261.02 C635.26,255.13 638.75,252.76 645.21,252.25 C649.56,251.90 651.12,252.24 654.00,254.18 C660.94,258.86 662.89,267.83 658.75,276.03 C655.15,283.18 648.17,286.23 640.62,283.97 ZM 414.12 253.27 C414.18,249.55 414.52,245.19 414.87,243.58 C415.50,240.68 415.52,240.69 420.87,247.74 C423.83,251.63 426.17,255.19 426.08,255.66 C425.92,256.50 421.89,258.10 416.75,259.36 L 414.00 260.04 L 414.12 253.27 ZM 492.90 252.73 C488.66,249.90 486.00,244.75 486.00,239.37 C486.00,227.39 495.98,220.24 506.33,224.82 C520.71,231.18 516.10,255.00 500.50,255.00 C497.79,255.00 495.09,254.19 492.90,252.73 Z" fill="rgb(251,252,252)"/>
</g>
</svg>